# File created by Blade
# Date/Time:  Wed Sep 24 19:10:19 2014
# Frame Rate: 120.000 fps
#------------------------------------------------------
:FULLY-SPECIFIED
:DEGREES
4062
root -7.873272 33.081106 -3.482127 47.530950 11.904360 9.111180
Spine -24.260041 10.995894 3.770767
Head -13.796846 20.365917 -10.753252
LeftShoulder -10.186872 21.245174 10.041323
LeftArm 17.045792 -19.192701 -87.073066
LeftForeArm 2.591941 -0.000000 119.719679
LeftHand -33.917994 -0.000000 39.614855
LeftHandThumb1 -26.253704 0.000000 33.147579
RightShoulder -16.534076 8.125304 -22.945165
RightArm -12.861939 -20.850698 70.965507
RightForeArm -24.422266 -0.000000 39.281965
RightHand -3.921271 -0.000000 8.410883
RightHandThumb1 -24.326973 -0.000000 -32.862282
LeftUpLeg -6.535861 36.647246 10.137245
LeftLeg 84.824836 -0.000000 -0.000000
LeftFoot 32.842490 20.983862 -23.239125
LeftToeBase 9.178410 -0.000000 -0.000000
RightUpLeg -50.003376 -10.909407 7.448571
RightLeg 13.250234 -0.000000 -0.000000
RightFoot -12.592805 -16.024815 -8.900350
RightToeBase -3.805400 -0.000000 0.000000
4063
root -7.870675 33.079439 -3.482240 47.469218 11.845740 9.080350
Spine -24.244261 11.039045 3.783615
Head -13.766862 20.381326 -10.751378
LeftShoulder -10.172628 21.255431 10.045277
LeftArm 17.005640 -19.098140 -87.074990
LeftForeArm 2.712006 -0.000000 119.777570
LeftHand -33.959282 -0.000000 39.641689
LeftHandThumb1 -26.253704 0.000000 33.147579
RightShoulder -16.557589 8.117500 -22.968752
RightArm -12.887140 -20.752141 70.990308
RightForeArm -24.529642 -0.000000 39.223837
RightHand -3.926805 0.000000 8.490920
RightHandThumb1 -24.326973 -0.000000 -32.862282
LeftUpLeg -6.602470 36.605797 10.063950
LeftLeg 85.088783 -0.000000 -0.000000
LeftFoot 32.664280 21.197273 -23.472231
LeftToeBase 9.432137 -0.000000 -0.000000
RightUpLeg -49.941382 -10.812752 7.362948
RightLeg 13.256998 -0.000000 -0.000000
RightFoot -12.621905 -15.972081 -8.842175
RightToeBase -3.774731 -0.000000 0.000000
4064
root -7.871031 33.077135 -3.483553 47.404120 11.802752 9.043523
Spine -24.213769 11.059239 3.819222
Head -13.780783 20.415728 -10.764964
LeftShoulder -10.174484 21.243983 10.038214
LeftArm 16.945589 -19.032059 -87.054467
LeftForeArm 2.775221 -0.000000 119.825352
LeftHand -33.936443 -0.000000 39.599232
LeftHandThumb1 -26.253704 0.000000 33.147579
RightShoulder -16.569137 8.108202 -22.967994
RightArm -12.895856 -20.666707 70.991591
RightForeArm -24.552745 0.000000 39.202482
RightHand -3.960453 0.000000 8.541664
RightHandThumb1 -24.326973 -0.000000 -32.862282
LeftUpLeg -6.682564 36.555709 10.012826
LeftLeg 85.372485 -0.000000 -0.000000
LeftFoot 32.522278 21.424534 -23.683066
LeftToeBase 9.393937 -0.000000 -0.000000
RightUpLeg -49.867208 -10.701354 7.271607
RightLeg 13.267859 -0.000000 -0.000000
RightFoot -12.590690 -16.063077 -8.891323
RightToeBase -3.792141 -0.000000 0.000000
4065
root -7.871397 33.074661 -3.485206 47.332446 11.742744 8.997721
Spine -24.165930 11.076247 3.854222
Head -13.817030 20.456039 -10.789578
LeftShoulder -10.201351 21.237827 10.020339
LeftArm 16.898395 -18.988239 -87.029403
LeftForeArm 2.815052 -0.000000 119.865193
LeftHand -33.928854 -0.000000 39.614681
LeftHandThumb1 -26.253704 0.000000 33.147579
RightShoulder -16.555493 8.134003 -22.958943
RightArm -12.944550 -20.673277 70.995199
RightForeArm -24.486863 -0.000000 39.185249
RightHand -3.968279 -0.000000 8.495529
RightHandThumb1 -24.326973 -0.000000 -32.862282
LeftUpLeg -6.753688 36.518186 9.958369
LeftLeg 85.667805 -0.000000 -0.000000
LeftFoot 32.493189 21.308184 -23.377583
LeftToeBase 9.511043 -0.000000 -0.000000
RightUpLeg -49.799152 -10.591938 7.200894
RightLeg 13.270092 -0.000000 -0.000000
RightFoot -12.624397 -16.006571 -8.800850
RightToeBase -3.748180 -0.000000 0.000000
